<?xml version="1.0" standalone="no"?>
<!DOCTYPE svg PUBLIC "-//W3C//DTD SVG 20010904//EN"
 "http://www.w3.org/TR/2001/REC-SVG-20010904/DTD/svg10.dtd">
<svg version="1.0" xmlns="http://www.w3.org/2000/svg"
 width="512.000000pt" height="512.000000pt" viewBox="0 0 512.000000 512.000000"
 preserveAspectRatio="xMidYMid meet">
<metadata>
Created by potrace 1.11, written by Peter Selinger 2001-2013
</metadata>
<g transform="translate(0.000000,512.000000) scale(0.100000,-0.100000)"
fill="#000000" stroke="none">
<path d="M2040 5112 c0 -4 -28 -14 -62 -22 -134 -29 -294 -87 -484 -176 -28
-13 -56 -24 -61 -24 -6 0 -16 -7 -23 -15 -7 -8 -21 -15 -31 -15 -11 0 -19 -4
-19 -9 0 -5 -16 -15 -35 -22 -19 -7 -35 -17 -35 -21 0 -4 -6 -8 -13 -8 -7 0
-23 -9 -35 -20 -12 -11 -25 -20 -30 -20 -4 0 -17 -8 -28 -18 -10 -10 -26 -21
-34 -25 -32 -16 -63 -36 -69 -44 -3 -4 -41 -34 -84 -66 -100 -74 -337 -308
-419 -413 -70 -91 -65 -83 -149 -214 -34 -52 -70 -107 -80 -122 -21 -30 -117
-224 -137 -278 -69 -178 -65 -165 -117 -360 -29 -105 -43 -167 -51 -220 -3
-19 -7 -41 -10 -49 -2 -8 -7 -46 -11 -85 -3 -39 -10 -72 -14 -74 -12 -5 -12
-439 0 -444 4 -1 11 -39 15 -83 4 -44 9 -89 11 -100 3 -11 7 -33 9 -50 8 -50
45 -216 50 -224 3 -4 7 -21 10 -37 8 -43 75 -242 97 -288 10 -22 19 -46 19
-53 0 -7 5 -13 12 -13 6 0 9 -3 5 -6 -7 -7 111 -248 124 -252 5 -2 7 -8 3 -13
-3 -5 -1 -9 4 -9 5 0 12 -8 16 -17 6 -19 27 -55 37 -63 3 -3 12 -16 19 -29 7
-13 40 -59 74 -103 33 -43 66 -87 71 -96 22 -38 325 -352 340 -352 3 0 20 -14
38 -31 17 -17 52 -45 77 -62 25 -17 54 -39 64 -49 11 -10 26 -18 33 -18 8 0
11 -5 8 -10 -3 -6 3 -10 14 -10 10 0 21 -3 23 -7 4 -10 57 -42 80 -50 10 -3
18 -9 18 -14 0 -5 7 -9 15 -9 8 0 15 -4 15 -10 0 -5 9 -10 21 -10 11 0 17 -4
14 -10 -3 -5 3 -10 14 -10 12 0 21 -4 21 -8 0 -5 16 -14 35 -22 19 -8 35 -17
35 -22 0 -4 3 -7 8 -6 4 1 33 -10 64 -25 31 -15 60 -27 63 -27 3 0 31 -11 61
-25 30 -14 60 -25 68 -25 7 0 16 -3 20 -7 3 -4 12 -8 19 -9 19 -3 150 -45 169
-55 10 -5 27 -9 38 -9 11 0 20 -4 20 -10 0 -7 220 -10 640 -10 420 0 640 3
640 10 0 6 9 10 20 10 10 0 29 4 42 9 13 5 61 22 108 36 84 27 100 33 190 72
25 11 62 26 83 34 20 7 37 17 37 21 0 4 7 8 15 8 14 0 53 18 65 30 3 3 28 16
55 30 28 14 52 28 55 31 3 3 20 12 38 20 17 8 32 17 32 20 0 4 14 12 30 19 17
7 30 16 30 21 0 5 7 9 15 9 9 0 25 9 37 20 12 11 28 20 35 20 8 0 12 4 9 9 -3
5 8 14 24 20 17 5 30 15 30 20 0 6 7 11 16 11 8 0 12 5 9 10 -3 6 -1 10 5 10
6 0 17 6 24 12 7 7 31 27 52 43 69 54 222 209 226 230 2 14 -7 24 -32 37 -19
9 -43 17 -52 18 -9 0 -20 5 -23 10 -3 6 -16 10 -29 10 -12 0 -26 3 -30 7 -3 4
-16 8 -28 10 -12 2 -27 8 -33 13 -7 6 -41 19 -76 31 -35 11 -73 24 -84 29 -40
18 -192 70 -203 70 -7 0 -20 4 -30 9 -28 14 -64 29 -107 43 -22 7 -43 17 -47
23 -4 5 -8 7 -8 3 0 -7 -96 24 -107 35 -3 4 -16 7 -28 7 -11 0 -25 4 -31 8 -5
4 -27 14 -49 21 -22 7 -51 17 -65 23 -55 24 -172 66 -265 96 -27 9 -52 19 -55
22 -3 3 -16 7 -30 8 -14 2 -29 7 -35 12 -5 4 -28 13 -50 20 -22 7 -44 16 -49
21 -6 5 -20 9 -32 9 -13 0 -26 5 -29 10 -3 6 -20 10 -36 10 -17 0 -28 4 -25 9
3 5 -7 11 -22 14 -15 3 -40 11 -57 18 -16 7 -34 13 -40 14 -9 0 -56 17 -100
35 -11 5 -38 15 -60 22 -22 7 -43 17 -47 23 -4 5 -8 7 -8 3 0 -7 -45 7 -105
32 -11 5 -38 14 -60 21 -22 7 -44 17 -49 21 -6 4 -18 8 -28 8 -10 0 -27 5 -38
10 -11 6 -29 15 -40 20 -11 6 -29 10 -40 10 -11 0 -20 4 -20 10 0 5 -3 9 -7 8
-8 -2 -72 17 -108 32 -11 4 -47 18 -80 30 -33 12 -72 27 -87 32 -33 12 -37 28
-8 28 11 0 20 5 20 10 0 6 6 10 13 10 7 0 44 16 83 35 38 19 77 35 87 35 9 0
17 4 17 8 0 10 131 68 143 64 5 -1 6 1 3 6 -5 8 62 38 77 34 4 -1 7 2 7 8 0 5
6 10 13 10 18 0 67 24 67 33 0 4 7 7 15 7 8 0 29 9 47 20 18 11 41 20 51 20 9
0 17 5 17 10 0 6 7 10 15 10 8 0 30 9 50 20 20 11 42 20 50 20 8 0 15 5 15 10
0 6 5 10 10 10 6 0 48 18 95 40 47 22 89 40 95 40 5 0 10 5 10 10 0 6 5 10 10
10 6 0 30 9 52 20 23 11 50 20 60 20 10 0 18 3 18 8 0 4 24 18 53 31 28 13 89
41 133 62 45 22 87 39 93 39 6 0 11 4 11 8 0 4 17 14 38 21 20 7 67 28 105 47
37 19 67 31 67 26 0 -4 4 -2 8 3 4 6 18 15 32 21 14 6 45 21 68 33 24 11 49
21 55 21 7 0 23 9 37 20 14 11 33 20 43 20 9 0 17 5 17 10 0 6 6 10 13 10 7 0
32 9 55 20 22 11 45 20 51 20 5 0 11 5 13 10 2 6 13 12 25 13 12 0 19 5 17 9
-3 4 1 8 8 8 7 0 44 15 83 34 38 19 93 44 120 56 28 12 82 37 121 56 39 19 76
34 83 34 6 0 11 5 11 10 0 6 6 10 14 10 7 0 40 13 72 29 92 46 158 74 171 74
7 0 10 3 8 7 -2 4 14 13 35 20 22 7 40 17 40 22 0 4 9 8 19 8 11 0 23 5 26 10
3 6 15 10 26 10 10 0 19 5 19 10 0 6 9 10 19 10 11 0 23 5 26 10 3 6 15 10 26
10 10 0 19 3 19 8 0 6 56 36 70 37 3 0 40 18 83 39 73 36 77 40 77 71 0 18 -4
35 -9 37 -6 2 -12 15 -15 30 -2 14 -9 36 -16 47 -6 12 -9 21 -6 21 2 0 -8 26
-24 58 -15 31 -49 104 -75 162 -27 57 -52 109 -57 115 -5 5 -30 46 -55 90 -26
44 -50 82 -53 85 -3 3 -19 25 -35 50 -16 25 -32 47 -35 50 -3 3 -17 21 -30 40
-13 19 -29 40 -35 46 -5 7 -21 26 -35 44 -14 18 -57 65 -97 105 -39 41 -69 76
-66 79 4 3 1 6 -6 6 -16 0 -62 46 -54 54 4 3 0 6 -8 6 -8 0 -42 26 -75 58 -34
31 -74 66 -89 76 -14 11 -38 30 -53 43 -15 13 -33 23 -39 23 -7 0 -13 5 -13
10 0 6 -7 10 -16 10 -8 0 -12 5 -9 10 3 6 -2 10 -12 10 -22 1 -55 24 -46 33 3
4 -3 7 -15 7 -12 0 -22 4 -22 9 0 5 -25 21 -55 35 -30 15 -57 32 -60 37 -7 10
-150 79 -165 79 -6 0 -10 5 -10 10 0 6 -7 10 -15 10 -8 0 -23 4 -33 9 -33 18
-87 40 -115 46 -15 4 -30 11 -33 16 -3 5 -16 9 -30 9 -13 0 -24 4 -24 10 0 5
-3 9 -7 8 -5 -2 -28 3 -53 11 -45 13 -56 16 -75 21 -5 1 -18 7 -29 12 -10 6
-33 12 -50 15 -17 3 -32 9 -34 14 -4 11 -1192 12 -1192 1z"/>
</g>
</svg>
